<svg xmlns="http://www.w3.org/2000/svg" width="58" height="58" fill="none" viewBox="0 0 58 58"><mask id="a" width="33" height="24" x="12" y="17" fill="#000" maskUnits="userSpaceOnUse"><path fill="#fff" d="M12 17h33v24H12z"/><path d="M43.01 18.58 37.55 40h-5.16l-2.91-11.25q-.09-.33-.24-.99-.12-.66-.3-1.44-.15-.78-.27-1.47-.12-.72-.18-1.11-.03.39-.18 1.11-.12.69-.27 1.47-.15.75-.3 1.44-.15.66-.24 1.02L24.62 40h-5.16L14 18.58h4.47l2.73 11.7q.12.51.27 1.26.15.72.3 1.53.15.78.27 1.53.15.75.21 1.29.06-.57.18-1.29.12-.75.27-1.5.15-.78.27-1.44.15-.69.27-1.08l3.12-12h4.29l3.12 12q.09.39.24 1.08.15.66.3 1.44t.27 1.53q.12.72.18 1.26.09-.75.27-1.77.18-1.05.39-2.1.24-1.05.39-1.74l2.73-11.7z"/></mask><path fill="#000" d="M43.01 18.58 37.55 40h-5.16l-2.91-11.25q-.09-.33-.24-.99-.12-.66-.3-1.44-.15-.78-.27-1.47-.12-.72-.18-1.11-.03.39-.18 1.11-.12.69-.27 1.47-.15.75-.3 1.44-.15.66-.24 1.02L24.62 40h-5.16L14 18.58h4.47l2.73 11.7q.12.51.27 1.26.15.72.3 1.53.15.78.27 1.53.15.75.21 1.29.06-.57.18-1.29.12-.75.27-1.5.15-.78.27-1.44.15-.69.27-1.08l3.12-12h4.29l3.12 12q.09.39.24 1.08.15.66.3 1.44t.27 1.53q.12.72.18 1.26.09-.75.27-1.77.18-1.05.39-2.1.24-1.05.39-1.74l2.73-11.7z"/><path fill="#000" d="m43.01 18.58.969.247.318-1.247H43.01zM37.55 40v1h.777l.192-.753zm-5.16 0-.968.25.194.75h.774zm-2.91-11.25.968-.25-.003-.013zm-.24-.99-.984.179.004.021.005.022zm-.3-1.44-.982.189.004.018.004.018zm-.27-1.47-.986.164v.007zm-.18-1.11.988-.152-1.985.075zm-.18 1.11-.979-.204-.003.016-.003.017zm-.27 1.47.98.196.002-.007zm-.3 1.44.975.222.002-.01zm-.24 1.02.969.249.001-.006zM24.62 40v1h.776l.193-.751zm-5.16 0-.969.247.192.753h.777zM14 18.58v-1h-1.287l.318 1.247zm4.47 0 .974-.227-.18-.773h-.794zm2.73 11.7-.974.227v.002zm.27 1.26-.98.196.001.008zm.3 1.53-.983.182.001.007zm.27 1.53-.987.158.003.02.003.018zm.21 1.29-.994.11 1.988-.005zm.18-1.29.986.164.001-.006zm.27-1.5.98.196.002-.007zm.27-1.44-.977-.212-.004.016-.003.017zm.27-1.08.956.294.006-.021.006-.021zm3.12-12v-1h-.773l-.195.748zm4.29 0 .968-.252-.195-.748h-.773zm3.12 12 .974-.225-.003-.013-.003-.014zm.24 1.08-.977.212.002.01zm.3 1.44-.982.189zm.27 1.53-.987.158v.006zm.18 1.26-.994.11 1.987.01zm.27-1.77.985.174v-.005zm.39-2.1-.975-.223-.003.014-.003.013zm.39-1.74-.974-.227-.002.007-.001.008zm2.73-11.7v-1h-.794l-.18.773zm3.501-.247-5.46 21.42 1.938.494 5.46-21.42zM37.55 39h-5.16v2h5.16zm-4.192.75-2.91-11.25-1.936.5 2.91 11.25zm-2.913-11.263a27 27 0 0 1-.23-.949l-1.95.444c.1.443.184.79.25 1.031zm-.221-.906a33 33 0 0 0-.31-1.486l-1.948.45q.175.76.29 1.394zm-.302-1.45q-.149-.772-.267-1.452l-1.97.342q.12.7.273 1.488zm-.266-1.445q-.12-.719-.178-1.098l-1.976.304q.06.4.182 1.122zm-2.163-1.023a9 9 0 0 1-.162.983l1.958.408c.102-.492.173-.912.198-1.237zm-.168 1.016q-.12.68-.267 1.452l1.964.378q.151-.787.273-1.488zm-.266 1.445q-.148.743-.296 1.424l1.954.424q.152-.697.304-1.456zm-.294 1.414q-.15.656-.235 1l1.94.485c.063-.25.145-.6.245-1.041zm-.234.993-2.88 11.22 1.938.498 2.88-11.22zM24.62 39h-5.16v2h5.16zm-4.191.753-5.46-21.42-1.938.494 5.46 21.42zM14 19.58h4.47v-2H14zm3.496-.773 2.73 11.7 1.948-.454-2.73-11.7zm2.73 11.702q.116.488.263 1.227l1.962-.392a40 40 0 0 0-.278-1.293zm.265 1.235q.147.707.296 1.508l1.966-.364a71 71 0 0 0-.304-1.552zm.297 1.515q.147.765.265 1.499l1.974-.316a50 50 0 0 0-.275-1.56zm.271 1.537q.144.722.197 1.204l1.988-.22q-.067-.598-.223-1.376zm2.185 1.199q.057-.533.172-1.23l-1.972-.33q-.125.743-.188 1.35zm.173-1.237q.117-.731.264-1.462l-1.962-.392a40 40 0 0 0-.276 1.538zm.265-1.47q.15-.783.272-1.45l-1.968-.357q-.12.654-.268 1.43zm.265-1.416c.098-.449.18-.777.249-.998l-1.912-.588c-.092.3-.189.69-.291 1.162zm.26-1.04 3.12-12-1.935-.504-3.12 12zM26.36 19.58h4.29v-2h-4.29zm3.322-.748 3.12 12 1.936-.504-3.12-12zm3.114 11.973q.087.38.237 1.067l1.954-.424a94 94 0 0 0-.243-1.093zm.239 1.077q.146.64.293 1.407l1.964-.378q-.153-.794-.307-1.473zm.293 1.407q.147.765.265 1.499l1.974-.316a50 50 0 0 0-.275-1.56zm.266 1.505q.117.702.172 1.206l1.988-.22a25 25 0 0 0-.188-1.314zm2.159 1.215q.085-.713.262-1.715l-1.97-.348a34 34 0 0 0-.278 1.825zm.263-1.72q.177-1.036.385-2.073l-1.962-.392a78 78 0 0 0-.395 2.127zm.379-2.046q.24-1.053.392-1.75l-1.954-.425q-.149.682-.388 1.73zm.389-1.736 2.73-11.7-1.948-.454-2.73 11.7zM38.54 19.58h4.47v-2h-4.47z" mask="url(#a)"/><g style="mix-blend-mode:darken"><path fill="#fff" d="M55.5 29c0 14.636-11.864 26.5-26.5 26.5S2.5 43.636 2.5 29 14.365 2.5 29 2.5 55.5 14.365 55.5 29"/><path stroke="#000" stroke-width="5" d="M55.5 29c0 14.636-11.864 26.5-26.5 26.5S2.5 43.636 2.5 29 14.365 2.5 29 2.5 55.5 14.365 55.5 29Z"/></g></svg>